<?xml version="1.0" encoding="utf-8"?>
<!-- Generator: Adobe Illustrator 27.8.0, SVG Export Plug-In . SVG Version: 6.00 Build 0)  -->
<svg version="1.1" id="Layer_1" xmlns="http://www.w3.org/2000/svg" xmlns:xlink="http://www.w3.org/1999/xlink" x="0px" y="0px"
	 viewBox="0 0 524.4 87.3" style="enable-background:new 0 0 524.4 87.3;" xml:space="preserve">
<style type="text/css">
	.st0{fill:#E6000F;}
	.st1{fill:#F07814;}
	.st2{fill:#003741;}
</style>
<g>
	<path class="st0" d="M18.8,13.4v30.7c0,11.8,2.1,17.2,5.9,20.4c2.2,1.8,5,3,8.3,4.2V41.3C32.9,29.9,27.3,19.8,18.8,13.4"/>
	<path class="st0" d="M51.7,13.4v30.7c0,11.8-2.1,17.2-5.9,20.4c-2.2,1.8-5,3-8.3,4.2V41.3C37.6,29.9,43.1,19.8,51.7,13.4"/>
	<path class="st1" d="M35.2,87.3c19.4,0,35.3-15.5,35.3-35.8l0-44.9c-5.1,0.3-9.9,1.7-14.2,4v37c0,24.6-17.8,25.5-21,25.5
		c-3.3,0-21-0.9-21-25.5v-37C9.9,8.3,5.1,6.9,0,6.6l0,44.9C0,71.8,15.8,87.3,35.2,87.3"/>
	<path class="st2" d="M35.2,24.5c2.5-5.1,6.1-9.5,10.4-13C43,6.9,39.5,3,35.2,0C31,3,27.4,6.9,24.9,11.4
		C29.2,15,32.7,19.4,35.2,24.5"/>
	<g>
		<path class="st2" d="M114.9,24.9c-8.6,0-14.9,6.2-14.9,14.6v22.4c0,0.9,0.7,1.5,1.5,1.5h1.9c0.9,0,1.5-0.7,1.5-1.5v-12h19.9v12
			c0,0.9,0.7,1.5,1.5,1.5h1.9c0.9,0,1.5-0.7,1.5-1.5V39.5C129.8,30.9,123.7,24.9,114.9,24.9 M124.9,44.5H105v-5c0-5.8,4-9.6,9.9-9.6
			c6,0,9.9,3.8,9.9,9.6V44.5z"/>
		<path class="st2" d="M164.7,33.9c-3.7,0-6.8,1.5-8.9,4.2c-2-2.6-5.2-4.2-8.9-4.2c-6.5,0-11.4,4.9-11.4,11.4v16.7
			c0,0.9,0.7,1.5,1.5,1.5h1.9c0.9,0,1.5-0.7,1.5-1.5V45.2c0-3.8,2.6-6.4,6.4-6.4c3.8,0,6.4,2.6,6.4,6.4v16.7c0,0.9,0.7,1.5,1.5,1.5
			h1.9c0.9,0,1.5-0.7,1.5-1.5V45.2c0-3.8,2.6-6.4,6.4-6.4c3.8,0,6.4,2.6,6.4,6.4v16.7c0,0.9,0.7,1.5,1.5,1.5h1.9
			c0.9,0,1.5-0.7,1.5-1.5V45.2C176.1,38.7,171.3,33.9,164.7,33.9"/>
		<path class="st2" d="M194.5,45.6c-6-0.8-7.1-1.7-7.2-3.2c0-0.7,0.3-1.3,0.8-1.9c1.1-1.1,3.2-1.8,5.6-1.8c2.7,0,6.1,0.8,7.2,4.4
			c0.2,0.7,0.8,1.1,1.5,1.1h1.9c0.5,0,0.9-0.2,1.2-0.6c0.3-0.4,0.4-0.9,0.3-1.3c-1.3-5.3-5.7-8.4-12.1-8.4c-7.4,0-11.3,4.3-11.3,8.6
			c0.1,6.4,6.8,7.4,11.4,8c7,1,7.6,2.7,7.7,4.3c0.1,0.9-0.2,1.7-0.8,2.4c-1.3,1.3-3.6,2.1-6.1,2.1c-2.8,0-7.6-0.7-8.6-5.2
			c-0.2-0.7-0.8-1.2-1.5-1.2h-1.9c-0.5,0-0.9,0.2-1.2,0.5c-0.3,0.3-0.4,0.8-0.3,1.2c1,5.9,6,9.4,13.5,9.4c4,0,7.5-1.2,9.6-3.5
			c1.5-1.5,2.3-3.7,2.2-6c0,0,0,0,0,0C206.1,47.4,198.3,46.2,194.5,45.6"/>
		<path class="st2" d="M222.4,39.5c0.9,0,1.5-0.7,1.5-1.5v-1.9c0-0.9-0.7-1.5-1.5-1.5H217v-4c0-0.9-0.7-1.5-1.5-1.5h-1.9
			c-0.9,0-1.5,0.7-1.5,1.5v4h-2c-0.9,0-1.5,0.7-1.5,1.5v1.9c0,0.9,0.7,1.5,1.5,1.5h2V53c0,3.5,1.1,6.4,3.1,8.3
			c1.6,1.5,3.8,2.3,6.2,2.3c0.4,0,0.7,0,1.1-0.1c0.8-0.1,1.4-0.7,1.4-1.5v-1.7c0-0.4-0.2-0.8-0.5-1.1c-0.3-0.3-0.7-0.4-1.1-0.4
			c-1.7,0.1-3-0.3-3.9-1.1c-1.2-1.2-1.5-3.1-1.5-4.5V39.5H222.4z"/>
		<path class="st2" d="M273.6,34c-3.5-0.4-6.6,0.4-9.1,2.2v-0.2c0-0.9-0.7-1.5-1.5-1.5H261c-0.9,0-1.5,0.7-1.5,1.5v25.8
			c0,0.9,0.7,1.5,1.5,1.5h1.9c0.9,0,1.5-0.7,1.5-1.5V46.3c0-2.3,0.9-4.4,2.4-5.8c1.4-1.4,3.7-2,6.4-1.8c0.4,0,0.9-0.1,1.2-0.4
			c0.3-0.3,0.5-0.7,0.5-1.1v-1.7C275,34.7,274.4,34.1,273.6,34"/>
		<path class="st2" d="M371.4,33.9c-3.7,0-6.8,1.5-8.9,4.2c-2-2.6-5.2-4.2-8.9-4.2c-6.5,0-11.4,4.9-11.4,11.4v16.7
			c0,0.9,0.7,1.5,1.5,1.5h1.9c0.9,0,1.5-0.7,1.5-1.5V45.2c0-3.8,2.6-6.4,6.4-6.4c3.8,0,6.4,2.6,6.4,6.4v16.7c0,0.9,0.7,1.5,1.5,1.5
			h1.9c0.9,0,1.5-0.7,1.5-1.5V45.2c0-3.8,2.6-6.4,6.4-6.4c3.8,0,6.4,2.6,6.4,6.4v16.7c0,0.9,0.7,1.5,1.5,1.5h1.9
			c0.9,0,1.5-0.7,1.5-1.5V45.2C382.8,38.7,378,33.9,371.4,33.9"/>
		<path class="st2" d="M429.9,25.5h-1.9c-0.9,0-1.5,0.7-1.5,1.5v22.4c0,5.9-3.9,9.6-9.9,9.6c-5.9,0-9.9-3.9-9.9-9.6V27.1
			c0-0.9-0.7-1.5-1.5-1.5h-1.9c-0.9,0-1.5,0.7-1.5,1.5v22.4c0,8.5,6.3,14.6,14.9,14.6c8.8,0,14.9-6,14.9-14.6V27.1
			C431.5,26.2,430.8,25.5,429.9,25.5"/>
		<path class="st2" d="M471.2,24.6c-4.2,0-8,2-10.4,5.4c-2.4-3.3-6.2-5.4-10.3-5.4c-7.1,0-12.8,5.8-12.8,12.8v24.4
			c0,0.9,0.7,1.5,1.5,1.5h1.9c0.9,0,1.5-0.7,1.5-1.5V37.5c0-4.4,3.5-7.9,7.9-7.9c4.3,0,7.8,3.5,7.8,7.9v24.4c0,0.9,0.7,1.5,1.5,1.5
			h1.9c0.9,0,1.5-0.7,1.5-1.5V37.5c0-4.4,3.5-7.9,7.9-7.9c4.3,0,7.8,3.5,7.8,7.9v24.4c0,0.9,0.7,1.5,1.5,1.5h1.9
			c0.9,0,1.5-0.7,1.5-1.5V37.5C484,30.4,478.3,24.6,471.2,24.6"/>
		<path class="st2" d="M335.9,41.4c-1.3-2.3-3.1-4.1-5.4-5.4c-2.2-1.3-4.8-2-7.5-2c-2.8,0-5.3,0.7-7.6,2c-2.3,1.3-4.1,3.1-5.4,5.4
			c-1.3,2.3-1.9,4.8-1.9,7.6c0,2.8,0.6,5.4,1.8,7.6c1.2,2.3,2.9,4.1,5,5.4c2.1,1.3,4.5,1.9,7.1,1.9c0.1,0,0.2,0,0.3,0
			c0.1,0,0.2,0,0.3,0c1.7,0,3.4-0.3,4.9-0.9c0.2-0.1,0.4-0.1,0.6-0.2c0.4-0.1,0.8-0.4,1.2-0.6c0.1,0,0.2-0.1,0.3-0.1c0,0,0,0,0,0
			c1.2-0.7,2.3-1.6,3.3-2.6v2.5c0,0.9,0.7,1.6,1.6,1.6h2c0.9,0,1.6-0.7,1.6-1.6v-1V50.8V49C337.9,46.2,337.3,43.6,335.9,41.4
			 M331.3,54.1c-0.8,1.5-2,2.7-3.4,3.6c-1.4,0.9-3.1,1.3-4.9,1.3c-1.8,0-3.4-0.4-4.9-1.3c-1.4-0.9-2.6-2.1-3.4-3.6
			c-0.8-1.5-1.3-3.2-1.3-5.1c0-1.9,0.4-3.6,1.3-5.2c0.8-1.5,2-2.7,3.4-3.6c1.4-0.9,3.1-1.3,4.9-1.3c1.8,0,3.4,0.4,4.9,1.3
			c1.4,0.9,2.6,2.1,3.4,3.6c0.8,1.5,1.2,3.3,1.2,5.2C332.6,50.9,332.1,52.6,331.3,54.1"/>
		<path class="st2" d="M303,23h-1.9c-0.9,0-1.5,0.7-1.5,1.5v13.1c-2.6-2.4-5.9-3.8-9.5-3.8c-8,0-14.4,6.8-14.4,15.2
			c0,7.8,5.7,14.2,13.1,14.9l0,0c0.5,0,0.9,0.1,1.4,0.1c0.5,0,0.9,0,1.4-0.1c7.3-0.7,13-6.8,13.1-14.2l0,0V24.6
			C304.6,23.7,303.9,23,303,23 M280.6,49.1c0-5.6,4.3-10.2,9.5-10.2c5.2,0,9.5,4.6,9.5,10.2c0,5.5-4.3,10-9.5,10
			C284.9,59.1,280.6,54.6,280.6,49.1"/>
		<path class="st2" d="M249.6,55.8c-0.6-0.4-1.5-0.4-1.9,0.2c-1.6,1.9-3.9,2.8-6.9,2.8c-5,0-9-3.6-9.7-8.6h22.3
			c0.8,0,1.5-0.7,1.5-1.5c0.1-3.9-1.6-8-4.5-10.9c-2.7-2.7-6.2-4.2-10-4.2c-8,0-14.4,6.8-14.4,15.2c0,8.4,6.5,15,14.7,15
			c4.6,0,8.2-1.6,10.8-4.6c0.5-0.6,0.4-1.6-0.3-2.1L249.6,55.8z M240.4,38.6c4,0,7.6,2.7,8.9,6.7h-17.8
			C232.9,41.3,236.4,38.6,240.4,38.6"/>
		<path class="st2" d="M521.6,51.9c-0.7-0.4-1.6-0.2-2,0.5c-2.5,4.1-6.8,6.7-11.5,6.7c-7.6,0-13.8-6.6-13.8-14.8
			c0-8.1,6.2-14.7,13.8-14.7c4.9,0,9.3,2.7,11.8,7c0.4,0.7,1.2,0.9,1.9,0.5l1.9-1c0.7-0.4,1-1.3,0.6-2c-3.3-5.8-9.3-9.4-16.1-9.4
			c-10.3,0-18.8,8.8-18.8,19.7c0,10.9,8.4,19.7,18.8,19.7c6.4,0,12.4-3.5,15.8-9.1c0.4-0.7,0.2-1.6-0.5-2L521.6,51.9z"/>
	</g>
</g>
</svg>
